<?xml version="1.0" encoding="UTF-8" ?>
<!DOCTYPE svg PUBLIC "-//W3C//DTD SVG 1.1//EN" "http://www.w3.org/Graphics/SVG/1.1/DTD/svg11.dtd">
<svg width="35pt" height="34pt" viewBox="0 0 35 34" version="1.1" xmlns="http://www.w3.org/2000/svg">
<g id="#000000ff">
<path fill="#000000" opacity="1.00" d=" M 17.03 0.00 L 18.36 0.00 C 24.44 4.83 29.64 10.69 35.00 16.28 L 35.00 17.65 C 29.63 22.87 24.37 28.22 19.09 33.54 L 18.89 34.00 L 17.23 34.00 C 12.48 29.69 8.07 25.02 3.48 20.54 C 2.00 19.04 -0.29 16.86 1.80 14.85 C 6.67 9.72 11.49 4.41 17.03 0.00 M 2.28 16.89 C 7.22 21.90 12.06 27.02 17.23 31.78 L 18.04 31.86 C 22.63 27.89 26.64 23.29 31.05 19.13 C 31.75 18.25 33.68 16.98 32.37 15.80 C 27.64 10.86 22.74 6.09 17.86 1.31 C 12.44 6.26 7.21 11.46 2.28 16.89 Z" />
<path fill="#000000" opacity="1.00" d=" M 17.11 8.85 C 18.10 9.61 19.09 10.37 20.08 11.12 C 20.21 10.54 20.46 9.40 20.59 8.82 C 24.09 9.48 20.73 14.46 24.35 15.55 C 23.97 15.90 23.22 16.62 22.84 16.98 C 22.85 19.21 22.86 21.44 22.86 23.67 C 21.74 23.67 20.61 23.67 19.49 23.66 C 19.51 21.90 19.53 20.13 19.55 18.36 C 18.07 18.36 16.60 18.35 15.13 18.35 C 15.17 20.09 15.21 21.83 15.25 23.56 C 14.05 23.56 12.85 23.59 11.66 23.69 C 11.37 20.94 12.72 17.55 10.49 15.36 C 12.83 13.33 14.99 11.11 17.11 8.85 Z" />
</g>
<g id="#ffbb02ff">
<path fill="#ffbb02" opacity="1.00" d=" M 2.28 16.89 C 7.21 11.46 12.44 6.26 17.86 1.31 C 22.74 6.09 27.64 10.86 32.37 15.80 C 33.68 16.98 31.75 18.25 31.05 19.13 C 26.64 23.29 22.63 27.89 18.04 31.86 L 17.23 31.78 C 12.06 27.02 7.22 21.90 2.28 16.89 M 17.11 8.85 C 14.99 11.11 12.83 13.33 10.49 15.36 C 12.72 17.55 11.37 20.94 11.66 23.69 C 12.85 23.59 14.05 23.56 15.25 23.56 C 15.21 21.83 15.17 20.09 15.13 18.35 C 16.60 18.35 18.07 18.36 19.55 18.36 C 19.53 20.13 19.51 21.90 19.49 23.66 C 20.61 23.67 21.74 23.67 22.86 23.67 C 22.86 21.44 22.85 19.21 22.84 16.98 C 23.22 16.62 23.97 15.90 24.35 15.55 C 20.73 14.46 24.09 9.48 20.59 8.82 C 20.46 9.40 20.21 10.54 20.08 11.12 C 19.09 10.37 18.10 9.61 17.11 8.85 Z" />
</g>
</svg>
