<?xml version="1.0" encoding="UTF-8" ?>
<!DOCTYPE svg PUBLIC "-//W3C//DTD SVG 1.1//EN" "http://www.w3.org/Graphics/SVG/1.1/DTD/svg11.dtd">
<svg width="146pt" height="57pt" viewBox="0 0 146 57" version="1.1" xmlns="http://www.w3.org/2000/svg">
<g id="#000000ff">
<path fill="#000000" opacity="1.00" d=" M 0.95 11.80 C 2.58 7.76 5.46 4.37 7.77 0.71 C 11.79 0.77 15.81 0.74 19.82 0.76 C 18.49 3.09 17.10 5.40 15.68 7.68 C 13.70 7.93 11.72 8.19 9.74 8.40 C 9.67 11.41 10.26 14.57 9.40 17.49 C 6.70 22.28 3.59 26.83 0.74 31.52 C 0.93 24.95 0.42 18.35 0.95 11.80 Z" />
<path fill="#000000" opacity="1.00" d=" M 38.51 7.82 C 40.22 5.54 41.17 2.38 43.76 0.89 C 47.62 0.53 51.51 0.79 55.38 0.76 C 53.99 3.12 52.57 5.46 51.13 7.80 C 46.92 7.83 42.72 7.82 38.51 7.82 Z" />
<path fill="#000000" opacity="1.00" d=" M 74.02 7.80 C 75.52 5.41 77.05 3.04 78.65 0.71 C 82.71 0.71 86.78 0.62 90.81 1.15 C 89.37 3.44 87.84 5.66 86.31 7.89 C 82.21 7.80 78.12 7.82 74.02 7.80 Z" />
<path fill="#000000" opacity="1.00" d=" M 109.47 7.86 C 111.00 5.50 112.52 3.12 114.03 0.73 C 118.05 0.76 122.07 0.73 126.10 0.77 C 124.84 3.19 123.44 5.54 121.96 7.83 C 117.79 7.81 113.63 7.81 109.47 7.86 Z" />
<path fill="#000000" opacity="1.00" d=" M 138.75 17.77 C 141.02 14.24 143.18 10.64 145.36 7.06 C 145.23 13.69 145.68 20.35 145.20 26.97 C 142.77 32.08 139.30 36.64 136.32 41.46 C 136.38 35.61 136.29 29.77 136.35 23.92 C 136.13 21.58 137.62 19.66 138.75 17.77 Z" />
<path fill="#000000" opacity="1.00" d=" M 34.12 18.00 C 36.38 18.00 38.64 18.00 40.90 18.00 C 41.01 19.08 41.12 20.17 41.24 21.25 C 41.87 23.72 42.14 26.26 42.72 28.73 C 42.90 29.91 43.08 31.09 43.27 32.26 C 44.07 34.42 44.03 36.74 44.10 39.00 C 42.40 39.00 40.70 39.00 39.00 39.00 C 39.00 37.67 39.00 36.33 39.00 35.00 C 38.25 35.00 36.75 35.00 36.00 35.00 C 36.00 36.33 36.00 37.67 36.00 39.00 C 34.30 39.00 32.60 39.00 30.90 39.00 C 30.97 36.73 30.90 34.40 31.76 32.25 C 31.93 30.75 32.08 29.25 32.25 27.75 C 32.88 25.28 33.13 22.74 33.72 20.27 C 33.82 19.70 34.02 18.57 34.12 18.00 M 37.05 21.99 C 36.99 23.75 36.94 25.52 36.87 27.28 C 36.45 28.51 36.04 29.74 35.66 30.97 C 36.58 30.97 38.42 30.97 39.35 30.97 C 38.96 29.74 38.55 28.51 38.13 27.28 C 38.06 25.52 38.01 23.76 37.95 22.00 L 37.05 21.99 Z" />
<path fill="#000000" opacity="1.00" d=" M 45.00 18.00 C 48.18 18.00 51.36 18.00 54.55 18.00 C 55.36 18.82 56.18 19.64 57.00 20.45 C 57.00 23.15 57.00 25.85 57.00 28.55 C 56.18 29.36 55.36 30.18 54.55 31.00 C 53.03 31.00 51.51 31.00 50.00 31.00 C 50.00 33.67 50.00 36.33 50.00 39.00 C 48.33 39.00 46.67 39.00 45.00 39.00 C 45.00 32.00 45.00 25.00 45.00 18.00 M 50.00 22.00 C 50.00 23.67 50.00 25.33 50.00 27.00 C 50.50 27.00 51.50 27.00 52.00 27.00 C 52.00 25.33 52.00 23.67 52.00 22.00 C 51.50 22.00 50.50 22.00 50.00 22.00 Z" />
<path fill="#000000" opacity="1.00" d=" M 59.00 18.00 C 61.67 18.00 64.33 18.00 67.00 18.00 C 67.00 19.33 67.00 20.66 67.00 21.99 C 66.25 22.00 64.75 22.00 64.00 22.01 C 64.00 23.34 64.00 24.66 64.00 25.99 C 64.75 26.00 66.25 26.00 67.00 26.01 C 67.00 27.34 67.00 28.66 67.00 29.99 C 66.25 30.00 64.75 30.00 64.00 30.01 C 64.00 31.67 64.00 33.33 64.00 35.00 C 65.33 35.00 66.67 35.00 68.00 35.00 C 68.00 36.33 68.00 37.67 68.00 39.00 C 65.00 39.00 62.00 39.00 59.00 39.00 C 59.00 32.00 59.00 25.00 59.00 18.00 Z" />
<path fill="#000000" opacity="1.00" d=" M 71.00 18.00 C 72.67 18.00 74.33 18.00 76.00 18.00 C 76.00 20.67 76.00 23.33 76.00 26.00 C 76.50 26.00 77.50 26.00 78.00 26.00 C 78.00 23.33 78.00 20.67 78.00 18.00 C 79.67 18.00 81.33 18.00 83.00 18.00 C 83.00 25.00 83.00 32.00 83.00 39.00 C 81.33 39.00 79.67 39.00 78.00 39.00 C 78.00 36.00 78.00 33.00 78.00 30.00 C 77.50 30.00 76.50 30.00 76.00 30.00 C 76.00 33.00 76.00 36.00 76.00 39.00 C 74.33 39.00 72.67 39.00 71.00 39.00 C 71.00 32.00 71.00 25.00 71.00 18.00 Z" />
<path fill="#000000" opacity="1.00" d=" M 87.98 18.00 C 92.32 18.00 96.66 18.00 101.00 18.00 C 101.44 23.90 100.02 30.06 101.83 35.77 C 101.99 38.17 102.01 40.59 102.03 43.00 C 100.69 43.00 99.34 43.00 98.00 43.00 C 98.00 41.67 98.00 40.33 98.00 39.00 C 95.00 39.00 92.00 39.00 89.00 39.00 C 89.00 40.33 89.00 41.67 89.00 43.00 C 87.67 43.00 86.33 43.00 85.00 43.00 C 84.98 40.54 85.00 38.08 85.01 35.62 C 85.65 34.54 86.30 33.47 86.95 32.41 C 87.03 31.19 87.11 29.97 87.21 28.75 C 88.55 25.33 87.91 21.58 87.98 18.00 M 93.05 22.00 C 93.02 24.59 93.21 27.26 92.27 29.73 C 92.12 30.61 91.99 31.49 91.85 32.37 C 91.55 33.03 90.96 34.35 90.66 35.01 C 92.44 35.00 94.22 34.99 96.00 35.00 C 96.00 30.67 96.00 26.33 96.00 22.00 C 95.26 22.00 93.79 22.00 93.05 22.00 Z" />
<path fill="#000000" opacity="1.00" d=" M 106.12 18.00 C 108.38 18.00 110.64 18.00 112.90 18.00 C 113.01 19.08 113.12 20.17 113.23 21.25 C 113.88 23.70 114.19 26.22 114.62 28.72 C 114.97 30.41 115.28 32.12 115.82 33.76 C 115.93 35.51 116.00 37.25 116.07 39.00 C 114.38 39.00 112.69 39.00 111.00 39.00 C 111.00 37.67 111.00 36.33 111.00 35.00 C 110.25 35.00 108.75 35.00 108.00 35.00 C 108.00 36.33 108.00 37.67 108.00 39.00 C 106.30 39.00 104.60 39.00 102.90 39.00 C 102.97 36.73 102.90 34.40 103.75 32.25 C 103.93 30.75 104.08 29.25 104.25 27.75 C 104.88 25.28 105.14 22.74 105.72 20.27 C 105.82 19.70 106.02 18.57 106.12 18.00 M 109.05 22.00 C 108.99 23.76 108.94 25.52 108.87 27.29 C 108.45 28.51 108.04 29.74 107.66 30.97 C 108.58 30.97 110.43 30.97 111.35 30.97 C 110.96 29.74 110.55 28.51 110.13 27.28 C 110.06 25.52 110.01 23.76 109.95 22.00 L 109.05 22.00 Z" />
<path fill="#000000" opacity="1.00" d=" M 8.65 55.63 C 10.11 53.33 11.56 51.01 13.00 48.68 C 17.18 48.67 21.37 48.68 25.55 48.68 C 24.11 50.98 22.66 53.28 21.20 55.57 C 17.02 55.61 12.83 55.58 8.65 55.63 Z" />
<path fill="#000000" opacity="1.00" d=" M 48.35 48.77 C 52.55 48.64 56.75 48.66 60.94 48.70 C 59.51 51.01 58.05 53.31 56.60 55.61 C 52.46 55.59 48.32 55.60 44.18 55.58 C 45.63 53.34 47.03 51.09 48.35 48.77 Z" />
<path fill="#000000" opacity="1.00" d=" M 79.58 55.58 C 81.08 53.30 82.57 51.01 84.02 48.70 C 88.17 48.67 92.32 48.68 96.47 48.66 C 95.03 50.94 93.61 53.25 92.21 55.57 C 88.00 55.61 83.79 55.61 79.58 55.58 Z" />
<path fill="#000000" opacity="1.00" d=" M 115.05 55.58 C 116.52 53.25 118.03 50.93 119.56 48.63 C 123.69 48.70 127.82 48.68 131.96 48.67 C 130.43 50.95 129.38 53.74 127.20 55.47 C 123.15 55.80 119.09 55.55 115.05 55.58 Z" />
</g>
</svg>
