<?xml version="1.0" encoding="UTF-8" ?>
<!DOCTYPE svg PUBLIC "-//W3C//DTD SVG 1.1//EN" "http://www.w3.org/Graphics/SVG/1.1/DTD/svg11.dtd">
<svg width="162pt" height="163pt" viewBox="0 0 162 163" version="1.1" xmlns="http://www.w3.org/2000/svg">
<g id="#000000ff">
<path fill="#000000" opacity="1.00" d=" M 0.00 0.00 L 162.00 0.00 L 162.00 163.00 L 0.00 163.00 L 0.00 0.00 M 10.00 10.54 C 10.01 19.02 10.00 27.50 10.01 35.98 C 16.31 27.50 22.56 18.98 28.86 10.50 C 22.57 10.57 16.29 10.52 10.00 10.54 M 54.21 37.03 C 47.48 37.00 40.75 37.02 34.02 37.02 C 33.99 45.69 34.06 54.37 34.00 63.05 C 34.01 65.39 31.91 66.97 30.76 68.82 C 23.91 78.23 16.73 87.42 10.12 96.98 C 9.85 113.71 10.07 130.47 10.02 147.21 C 18.01 136.41 26.00 125.60 33.98 114.79 C 34.05 120.19 34.00 125.58 34.02 130.98 C 45.01 131.05 56.01 130.86 67.00 131.08 C 61.60 138.19 56.40 145.44 51.03 152.57 C 62.02 152.50 73.01 152.52 84.01 152.56 C 85.17 152.35 86.84 152.95 87.60 151.74 C 92.84 144.90 97.85 137.88 103.02 130.99 C 111.34 130.98 119.66 130.98 127.98 130.98 C 128.00 119.72 127.97 108.45 128.00 97.18 C 135.91 86.35 144.08 75.69 151.83 64.76 C 152.23 48.54 151.88 32.27 151.99 16.03 C 143.97 26.82 136.02 37.66 128.00 48.45 C 127.98 44.64 127.98 40.83 127.99 37.02 C 115.82 37.01 103.66 37.03 91.49 37.01 C 98.00 28.16 104.53 19.34 111.07 10.51 C 98.69 10.56 86.32 10.54 73.94 10.52 C 67.22 19.25 60.85 28.24 54.21 37.03 M 151.84 125.73 C 145.29 134.72 138.67 143.67 131.99 152.57 C 138.65 152.49 145.30 152.52 151.96 152.55 C 151.95 143.61 152.17 134.66 151.84 125.73 Z" />
<path fill="#000000" opacity="1.00" d=" M 69.15 67.60 C 73.00 66.20 76.88 64.45 81.03 64.34 C 85.26 64.72 89.20 66.49 93.20 67.79 C 92.12 74.89 91.34 82.03 90.35 89.14 C 93.93 84.01 93.41 77.27 94.63 71.36 C 99.32 74.52 103.90 78.46 105.47 84.12 C 105.87 86.39 105.92 88.73 106.42 90.99 C 107.06 92.40 108.28 93.50 108.75 94.99 C 108.95 97.46 108.83 99.93 108.82 102.41 C 106.11 102.40 103.40 102.40 100.69 102.40 C 100.71 103.15 100.75 104.64 100.77 105.38 C 87.69 105.43 74.61 105.37 61.53 105.41 C 61.53 104.66 61.54 103.16 61.54 102.41 C 58.52 102.40 55.50 102.40 52.47 102.38 C 52.82 99.06 51.19 94.68 54.57 92.51 C 55.85 88.18 55.84 83.37 58.48 79.53 C 60.23 75.79 64.06 73.93 67.10 71.41 C 68.54 77.35 68.76 83.72 71.57 89.24 C 71.08 82.00 70.11 74.79 69.15 67.60 Z" />
</g>
<g id="#ffbb02ff">
<path fill="#ffbb02" opacity="1.00" d=" M 10.00 10.54 C 16.29 10.52 22.57 10.57 28.86 10.50 C 22.56 18.98 16.31 27.50 10.01 35.98 C 10.00 27.50 10.01 19.02 10.00 10.54 Z" />
<path fill="#ffbb02" opacity="1.00" d=" M 54.21 37.03 C 60.85 28.24 67.22 19.25 73.94 10.52 C 86.32 10.54 98.69 10.56 111.07 10.51 C 104.53 19.34 98.00 28.16 91.49 37.01 C 103.66 37.03 115.82 37.01 127.99 37.02 C 127.98 40.83 127.98 44.64 128.00 48.45 C 136.02 37.66 143.97 26.82 151.99 16.03 C 151.88 32.27 152.23 48.54 151.83 64.76 C 144.08 75.69 135.91 86.35 128.00 97.18 C 127.97 108.45 128.00 119.72 127.98 130.98 C 119.66 130.98 111.34 130.98 103.02 130.99 C 97.85 137.88 92.84 144.90 87.60 151.74 C 86.84 152.95 85.17 152.35 84.01 152.56 C 73.01 152.52 62.02 152.50 51.03 152.57 C 56.40 145.44 61.60 138.19 67.00 131.08 C 56.01 130.86 45.01 131.05 34.02 130.98 C 34.00 125.58 34.05 120.19 33.98 114.79 C 26.00 125.60 18.01 136.41 10.02 147.21 C 10.07 130.47 9.85 113.71 10.12 96.98 C 16.73 87.42 23.91 78.23 30.76 68.82 C 31.91 66.97 34.01 65.39 34.00 63.05 C 34.06 54.37 33.99 45.69 34.02 37.02 C 40.75 37.02 47.48 37.00 54.21 37.03 M 69.15 67.60 C 70.11 74.79 71.08 82.00 71.57 89.24 C 68.76 83.72 68.54 77.35 67.10 71.41 C 64.06 73.93 60.23 75.79 58.48 79.53 C 55.84 83.37 55.85 88.18 54.57 92.51 C 51.19 94.68 52.82 99.06 52.47 102.38 C 55.50 102.40 58.52 102.40 61.54 102.41 C 61.54 103.16 61.53 104.66 61.53 105.41 C 74.61 105.37 87.69 105.43 100.77 105.38 C 100.75 104.64 100.71 103.15 100.69 102.40 C 103.40 102.40 106.11 102.40 108.82 102.41 C 108.83 99.93 108.95 97.46 108.75 94.99 C 108.28 93.50 107.06 92.40 106.42 90.99 C 105.92 88.73 105.87 86.39 105.47 84.12 C 103.90 78.46 99.32 74.52 94.63 71.36 C 93.41 77.27 93.93 84.01 90.35 89.14 C 91.34 82.03 92.12 74.89 93.20 67.79 C 89.20 66.49 85.26 64.72 81.03 64.34 C 76.88 64.45 73.00 66.20 69.15 67.60 Z" />
<path fill="#ffbb02" opacity="1.00" d=" M 151.84 125.73 C 152.17 134.66 151.95 143.61 151.96 152.55 C 145.30 152.52 138.65 152.49 131.99 152.57 C 138.67 143.67 145.29 134.72 151.84 125.73 Z" />
</g>
</svg>
